<svg width="25" height="25" viewBox="0 0 25 25" fill="none" xmlns="http://www.w3.org/2000/svg">
<path d="M17.1665 6.88892H14.1665C13.6142 6.88892 13.1665 7.33664 13.1665 7.88892V10.8889H17.1665C17.2802 10.8864 17.3881 10.9393 17.4557 11.0308C17.5233 11.1223 17.5423 11.2409 17.5065 11.3489L16.7665 13.5489C16.6983 13.7508 16.5096 13.8873 16.2965 13.8889H13.1665V21.3889C13.1665 21.665 12.9426 21.8889 12.6665 21.8889H10.1665C9.89036 21.8889 9.6665 21.665 9.6665 21.3889V13.8889H8.1665C7.89036 13.8889 7.6665 13.665 7.6665 13.3889V11.3889C7.6665 11.1128 7.89036 10.8889 8.1665 10.8889H9.6665V7.88892C9.6665 5.67978 11.4574 3.88892 13.6665 3.88892H17.1665C17.4426 3.88892 17.6665 4.11278 17.6665 4.38892V6.38892C17.6665 6.66506 17.4426 6.88892 17.1665 6.88892Z" fill="black"/>
</svg>
