<svg width="25" height="25" viewBox="0 0 25 25" fill="none" xmlns="http://www.w3.org/2000/svg">
<path fill-rule="evenodd" clip-rule="evenodd" d="M16.6665 3.88867H8.6665C5.90508 3.88867 3.6665 6.12725 3.6665 8.88867V16.8887C3.6665 19.6501 5.90508 21.8887 8.6665 21.8887H16.6665C19.4279 21.8887 21.6665 19.6501 21.6665 16.8887V8.88867C21.6665 6.12725 19.4279 3.88867 16.6665 3.88867ZM19.9165 16.8887C19.911 18.6813 18.4591 20.1332 16.6665 20.1387H8.6665C6.87385 20.1332 5.42199 18.6813 5.4165 16.8887V8.88867C5.42199 7.09602 6.87385 5.64416 8.6665 5.63867H16.6665C18.4591 5.64416 19.911 7.09602 19.9165 8.88867V16.8887ZM17.4165 9.13867C17.9688 9.13867 18.4165 8.69095 18.4165 8.13867C18.4165 7.58639 17.9688 7.13867 17.4165 7.13867C16.8642 7.13867 16.4165 7.58639 16.4165 8.13867C16.4165 8.69095 16.8642 9.13867 17.4165 9.13867ZM12.6665 8.38867C10.1812 8.38867 8.1665 10.4034 8.1665 12.8887C8.1665 15.374 10.1812 17.3887 12.6665 17.3887C15.1518 17.3887 17.1665 15.374 17.1665 12.8887C17.1692 11.6944 16.6959 10.5482 15.8514 9.70375C15.0069 8.85926 13.8608 8.38601 12.6665 8.38867ZM9.9165 12.8887C9.9165 14.4075 11.1477 15.6387 12.6665 15.6387C14.1853 15.6387 15.4165 14.4075 15.4165 12.8887C15.4165 11.3699 14.1853 10.1387 12.6665 10.1387C11.1477 10.1387 9.9165 11.3699 9.9165 12.8887Z" fill="black"/>
</svg>
