<svg width="25" height="25" viewBox="0 0 25 25" fill="none" xmlns="http://www.w3.org/2000/svg">
<path d="M21.6392 7.60607C21.1748 8.22559 20.6134 8.766 19.9767 9.20643C19.9767 9.36826 19.9767 9.53009 19.9767 9.70092C19.9818 12.6398 18.8079 15.4578 16.7182 17.5232C14.6284 19.5886 11.7976 20.7286 8.86043 20.6876C7.16237 20.6933 5.48605 20.3056 3.9628 19.5548C3.88066 19.5189 3.82769 19.4377 3.828 19.348V19.2491C3.828 19.12 3.93261 19.0154 4.06165 19.0154C5.7308 18.9603 7.3404 18.3816 8.66272 17.3611C7.15191 17.3306 5.79257 16.4356 5.16698 15.0594C5.13539 14.9843 5.14522 14.898 5.19295 14.8319C5.24067 14.7658 5.31938 14.7294 5.40063 14.7358C5.8598 14.7819 6.32356 14.7392 6.76658 14.6099C5.09877 14.2637 3.84559 12.8791 3.66624 11.1844C3.65987 11.1031 3.6963 11.0244 3.76238 10.9766C3.82845 10.9289 3.91462 10.919 3.98976 10.9507C4.43732 11.1482 4.92047 11.2522 5.40962 11.2563C3.94822 10.2971 3.31699 8.47272 3.87293 6.81489C3.93032 6.6538 4.06819 6.53479 4.23588 6.50161C4.40356 6.46842 4.57634 6.52595 4.6907 6.65306C6.66277 8.75192 9.37242 10.0026 12.2483 10.1415C12.1747 9.84752 12.1385 9.54543 12.1405 9.24239C12.1674 7.65339 13.1506 6.23788 14.6298 5.65854C16.1089 5.07921 17.7913 5.4507 18.8894 6.59911C19.6378 6.45652 20.3614 6.20512 21.0371 5.85288C21.0866 5.82198 21.1494 5.82198 21.1989 5.85288C21.2298 5.9024 21.2298 5.96519 21.1989 6.01471C20.8716 6.76419 20.3187 7.39279 19.6173 7.81286C20.2315 7.74163 20.8349 7.59674 21.4146 7.38131C21.4634 7.34809 21.5275 7.34809 21.5763 7.38131C21.6172 7.40001 21.6478 7.43578 21.6599 7.47909C21.672 7.5224 21.6644 7.56885 21.6392 7.60607Z" fill="black"/>
</svg>
